<?xml version="1.0" encoding="utf-8"?><svg version="1.2" baseProfile="tiny" id="hvg_x5F_negyzetLogo_xA0_Image_1_" xmlns="http://www.w3.org/2000/svg" xmlns:xlink="http://www.w3.org/1999/xlink" x="0px" y="0px" width="85" height="30" viewBox="0 0 85 30" xml:space="preserve"><rect x="-107.2" y="-211.2" display="none" fill="#EA5B0C" width="1429.7" height="850.3"/><path fill="#FFFFFF" d="M5,8.6c0.5-0.5,1-0.9,1.8-1.3C7.6,7,8.3,6.9,9.1,6.9c1.7,0,3,0.6,4,1.8s1.4,3,1.4,5.4l0,9.3l-5.1,0l0-9.3c0-1.2-0.2-2.1-0.5-2.6c-0.3-0.5-0.8-0.7-1.5-0.7c-0.6,0-1.1,0.1-1.5,0.2c-0.4,0.2-0.8,0.4-1,0.7l0,11.6l-5,0L0,0l5,0L5,8.6z"/><path fill="#FFFFFF" d="M22.2,17.8L22.2,17.8l2.7-10.6l5.2,0l-5.3,16.2l-5.1,0L14.4,7.2l5.2,0L22.2,17.8z"/><path fill="#FFFFFF" d="M31.2,9.2c1.1-1.6,2.7-2.3,4.7-2.3c0.9,0,1.7,0.3,2.3,0.6c0.4,0.3,1.1,0.7,1.4,1.2l0.3-1.5l4.7,0l0,16.1c0,2.1-0.7,3.8-2.1,5C41,29.4,38.9,30,36.4,30c-0.8,0-1.7-0.1-2.6-0.3c-0.9-0.2-1.8-0.5-2.6-0.9l1.2-3.6c0.5,0.2,1.1,0.4,1.7,0.5c0.7,0.2,1.4,0.3,2.3,0.3c1.1,0,1.8-0.3,2.3-0.7c0.5-0.4,0.9-1.1,0.9-2v-1.3c-0.5,0.6-1,1-1.6,1.3c-0.6,0.3-1.3,0.5-2.1,0.5c-2,0-3.6-0.7-4.7-2.2c-1.1-1.5-1.7-3.5-1.7-6C29.6,13,30.1,10.8,31.2,9.2z M35.2,18.7c0.4,0.7,1,1.1,1.9,1.1c0.6,0,1-0.1,1.4-0.3c0.4-0.2,0.7-0.5,1-0.8V12c-0.3-0.4-0.6-0.7-1-0.9c-0.4-0.2-0.9-0.3-1.4-0.3c-0.9,0-1.5,0.5-2,1.3c-0.4,0.8-0.7,2.1-0.7,3.4C34.6,16.8,34.8,18,35.2,18.7z"/><path fill="#FFFFFF" d="M80.4,21.5c-0.6,0.5-1,0.8-1.8,1.2c-0.7,0.4-1.7,0.6-2.7,0.6c-1.6,0-2.9-0.5-3.9-1.6c-0.9-1.1-1.4-2.7-1.4-4.9V7.2l5,0v9.7c0,0.9,0.2,1.6,0.5,2c0.3,0.4,0.8,0.7,1.4,0.7c0.5,0,1-0.1,1.4-0.2c0.4-0.1,0.7-0.4,1-0.7l0-11.5l5,0l0,15.9h-4.3L80.4,21.5z"/><rect x="47" y="18.4" fill="#FFFFFF" width="5" height="5"/><path fill="#FFFFFF" d="M59.5,8.6c0.5-0.5,1-0.9,1.8-1.3c0.7-0.3,1.5-0.4,2.3-0.4c1.7,0,3,0.6,4,1.8s1.4,3,1.4,5.4l0,9.3l-5.1,0l0-9.3c0-1.2-0.2-2.1-0.5-2.6c-0.3-0.5-0.8-0.7-1.5-0.7c-0.6,0-1.1,0.1-1.5,0.2c-0.4,0.2-0.8,0.4-1,0.7l0,11.6h-5l0-23.4l5,0L59.5,8.6z"/></svg>