<?xml version="1.0" encoding="utf-8"?>
<!-- Generator: Adobe Illustrator 23.0.3, SVG Export Plug-In . SVG Version: 6.00 Build 0)  -->
<svg version="1.1" id="Layer_1" xmlns="http://www.w3.org/2000/svg" xmlns:xlink="http://www.w3.org/1999/xlink" x="0px" y="0px"
	 viewBox="0 0 24 24" style="enable-background:new 0 0 24 24;" xml:space="preserve">
<style type="text/css">
	.st0{fill-rule:evenodd;clip-rule:evenodd;fill:#FFFFFF;}
	.st1{filter:url(#Adobe_OpacityMaskFilter);}
	.st2{mask:url(#b_1_);}
	.st3{fill:#FFFFFF;}
</style>
<g transform="translate(1 3)">
	<g>
		<path class="st0" d="M16.8,5.8c0,3.3-2.7,5.9-6,5.9c-3.3,0-6-2.6-6-5.9s2.7-5.9,6-5.9C14.1-0.1,16.8,2.5,16.8,5.8L16.8,5.8z
			 M21.9,19H-0.3v-1.7c0-2,1.6-3.6,3.6-3.6h14.9c2,0,3.6,1.6,3.6,3.6L21.9,19L21.9,19z"/>
	</g>
	<defs>
		<filter id="Adobe_OpacityMaskFilter" filterUnits="userSpaceOnUse" x="-1" y="-3" width="24" height="24">
			<feColorMatrix  type="matrix" values="1 0 0 0 0  0 1 0 0 0  0 0 1 0 0  0 0 0 1 0"/>
		</filter>
	</defs>
	<mask maskUnits="userSpaceOnUse" x="-1" y="-3" width="24" height="24" id="b_1_">
		<g class="st1">
			<path id="a_1_" class="st0" d="M16.8,5.8c0,3.3-2.7,5.9-6,5.9c-3.3,0-6-2.6-6-5.9s2.7-5.9,6-5.9C14.1-0.1,16.8,2.5,16.8,5.8
				L16.8,5.8z M21.9,19H-0.3v-1.7c0-2,1.6-3.6,3.6-3.6h14.9c2,0,3.6,1.6,3.6,3.6L21.9,19L21.9,19z"/>
		</g>
	</mask>
	<g class="st2">
		<path class="st3" d="M-1-3h24v24H-1V-3z"/>
	</g>
</g>
</svg>
